<svg xmlns="http://www.w3.org/2000/svg" width="1600" height="900" viewBox="0 0 1600 900">
  <defs><marker id="a" markerWidth="10" markerHeight="10" refX="8" refY="5" orient="auto"><path d="M0 0L10 5L0 10Z" fill="#58d6c7"/></marker></defs>
  <rect width="1600" height="900" fill="#071b2c"/>
  <text x="90" y="110" fill="#fff" font-family="Arial" font-size="46" font-weight="700">Why DINOv3 + SD-LoRA?</text>
  <text x="92" y="160" fill="#9fb5c8" font-family="Arial" font-size="23">Stable visual representations with small crop-specific trainable modules</text>
  <g font-family="Arial">
    <rect x="100" y="300" width="315" height="245" rx="28" fill="#12364d" stroke="#58d6c7" stroke-width="3"/>
    <rect x="530" y="300" width="315" height="245" rx="28" fill="#153f48" stroke="#58d6c7" stroke-width="3"/>
    <rect x="960" y="300" width="315" height="245" rx="28" fill="#12364d" stroke="#58d6c7" stroke-width="3"/>
    <rect x="1360" y="345" width="155" height="155" rx="78" fill="#58d6c7"/>
    <g fill="#58d6c7" font-size="21" font-weight="700"><text x="140" y="355">FROZEN</text><text x="570" y="355">TRAINABLE</text><text x="1000" y="355">CALIBRATED</text></g>
    <g fill="#fff" font-size="31" font-weight="700"><text x="140" y="420">DINOv3</text><text x="140" y="460">backbone</text><text x="570" y="420">SD-LoRA</text><text x="570" y="460">adapter</text><text x="1000" y="420">Crop-specific</text><text x="1000" y="460">classifier</text></g>
    <g fill="#9fb5c8" font-size="20"><text x="140" y="505">Reusable visual features</text><text x="570" y="505">Small efficient updates</text><text x="1000" y="505">Disease + OOD state</text></g>
    <g stroke="#58d6c7" stroke-width="7" marker-end="url(#a)"><path d="M435 425H500"/><path d="M865 425H930"/><path d="M1295 425H1340"/></g>
    <text x="1395" y="415" fill="#071b2c" font-size="22" font-weight="700">FIELD</text><text x="1385" y="450" fill="#071b2c" font-size="22" font-weight="700">OUTPUT</text>
    <rect x="100" y="650" width="1415" height="95" rx="22" fill="#102c40"/>
    <text x="145" y="708" fill="#fff" font-size="24">Result:</text><text x="245" y="708" fill="#9fb5c8" font-size="24">lower retraining cost, modular crop adapters and controlled uncertainty.</text>
  </g>
</svg>
