<svg xmlns="http://www.w3.org/2000/svg" width="1600" height="900" viewBox="0 0 1600 900">
  <rect width="1600" height="900" fill="#071b2c"/>
  <text x="90" y="110" fill="#fff" font-family="Arial" font-size="46" font-weight="700">Measured readiness result</text>
  <text x="92" y="160" fill="#9fb5c8" font-family="Arial" font-size="23">Apricot fruit adapter | saved test artifact</text>
  <g font-family="Arial">
    <rect x="90" y="245" width="900" height="480" rx="30" fill="#12364d"/>
    <g fill="#9fb5c8" font-size="24"><text x="145" y="320">Accuracy</text><text x="145" y="390">Balanced accuracy</text><text x="145" y="460">Macro-F1</text><text x="145" y="560">OOD AUROC</text><text x="145" y="630">OOD FPR</text></g>
    <g fill="#fff" font-size="30" font-weight="700"><text x="500" y="320">95.00%</text><text x="500" y="390">90.38%</text><text x="500" y="460">89.61%</text><text x="500" y="560">91.80%</text><text x="500" y="630">33.57%</text></g>
    <g font-size="20" font-weight="700"><text x="765" y="320" fill="#58d6c7">PASS</text><text x="765" y="390" fill="#58d6c7">PASS</text><text x="765" y="460" fill="#f4a261">FAIL</text><text x="765" y="560" fill="#f4a261">FAIL</text><text x="765" y="630" fill="#f4a261">FAIL</text></g>
    <line x1="140" y1="505" x2="930" y2="505" stroke="#35566b" stroke-width="2"/>
    <rect x="1080" y="280" width="420" height="245" rx="30" fill="#4a3040" stroke="#f4a261" stroke-width="3"/>
    <text x="1135" y="355" fill="#f4a261" font-size="23" font-weight="700">FINAL STATUS</text>
    <text x="1135" y="420" fill="#fff" font-size="35" font-weight="700">NOT DEPLOYMENT-</text><text x="1135" y="465" fill="#fff" font-size="35" font-weight="700">READY</text>
    <rect x="1080" y="570" width="420" height="155" rx="24" fill="#102c40"/>
    <text x="1130" y="625" fill="#fff" font-size="23" font-weight="700">Main remaining risk</text><text x="1130" y="670" fill="#9fb5c8" font-size="22">Unsupported-input rejection</text>
  </g>
</svg>
