<svg xmlns="http://www.w3.org/2000/svg" width="1600" height="900" viewBox="0 0 1600 900">
  <defs><marker id="a" markerWidth="10" markerHeight="10" refX="8" refY="5" orient="auto"><path d="M0 0L10 5L0 10Z" fill="#58d6c7"/></marker></defs>
  <rect width="1600" height="900" fill="#071b2c"/>
  <text x="90" y="110" fill="#fff" font-family="Arial" font-size="46" font-weight="700">Router-guided inference</text>
  <text x="92" y="160" fill="#9fb5c8" font-family="Arial" font-size="23">Weak or unsupported evidence returns abstention instead of a forced prediction</text>
  <g font-family="Arial">
    <g fill="#12364d" stroke="#58d6c7" stroke-width="3"><rect x="80" y="320" width="205" height="170" rx="24"/><rect x="355" y="320" width="205" height="170" rx="24"/><rect x="630" y="320" width="205" height="170" rx="24"/><rect x="905" y="320" width="205" height="170" rx="24"/><rect x="1180" y="320" width="205" height="170" rx="24"/></g>
    <g fill="#58d6c7" font-size="18" font-weight="700"><text x="115" y="365">01</text><text x="390" y="365">02</text><text x="665" y="365">03</text><text x="940" y="365">04</text><text x="1215" y="365">05</text></g>
    <g fill="#fff" font-size="25" font-weight="700"><text x="115" y="415">Plant image</text><text x="390" y="415">Crop + part</text><text x="390" y="450">router</text><text x="665" y="415">Confidence</text><text x="665" y="450">gate</text><text x="940" y="415">Adapter</text><text x="940" y="450">selection</text><text x="1215" y="415">Disease +</text><text x="1215" y="450">OOD decision</text></g>
    <g stroke="#58d6c7" stroke-width="6" marker-end="url(#a)"><path d="M300 405H335"/><path d="M575 405H610"/><path d="M850 405H885"/><path d="M1125 405H1160"/></g>
    <path d="M735 505V610H1115" stroke="#f4a261" stroke-width="6" fill="none" marker-end="url(#a)"/>
    <rect x="1135" y="570" width="365" height="100" rx="24" fill="#4a3040" stroke="#f4a261" stroke-width="3"/>
    <text x="1180" y="630" fill="#fff" font-size="28" font-weight="700">ABSTAIN SAFELY</text>
    <rect x="80" y="720" width="1420" height="80" rx="20" fill="#102c40"/>
    <text x="125" y="770" fill="#9fb5c8" font-size="23">Possible controlled exits: non-plant, unknown crop, router uncertainty, unavailable adapter.</text>
  </g>
</svg>
