<svg xmlns="http://www.w3.org/2000/svg" width="1400" height="760" viewBox="0 0 1400 760"><rect width="1400" height="760" rx="36" fill="#F8FAFC"/><text x="700" y="70" font-family="Arial" font-size="42" font-weight="700" text-anchor="middle" fill="#1B3142">LoRA-Based Adapter Training</text><defs><marker id="arrow" markerWidth="12" markerHeight="12" refX="10" refY="6" orient="auto"><path d="M2,2 L10,6 L2,10 Z" fill="#365F91"/></marker></defs><rect x="90" y="170" width="280" height="420" rx="28" fill="#DCEAFE" stroke="#365F91" stroke-width="5"/><text x="230" y="225" font-family="Arial" font-size="30" font-weight="700" text-anchor="middle" fill="#1B3142">Frozen Backbone</text><text x="230" y="280" font-family="Arial" font-size="23" text-anchor="middle" fill="#1B3142">pretrained visual</text><text x="230" y="315" font-family="Arial" font-size="23" text-anchor="middle" fill="#1B3142">representation</text><g fill="#FFFFFF" stroke="#365F91" stroke-width="3"><rect x="135" y="360" width="190" height="42" rx="12"/><rect x="135" y="425" width="190" height="42" rx="12"/><rect x="135" y="490" width="190" height="42" rx="12"/></g><text x="230" y="388" font-family="Arial" font-size="18" text-anchor="middle" fill="#1B3142">Transformer layers</text><text x="230" y="453" font-family="Arial" font-size="18" text-anchor="middle" fill="#1B3142">mostly fixed</text><text x="230" y="518" font-family="Arial" font-size="18" text-anchor="middle" fill="#1B3142">general features</text><rect x="520" y="170" width="320" height="420" rx="28" fill="#F5E8FF" stroke="#7B3EA8" stroke-width="5"/><text x="680" y="225" font-family="Arial" font-size="30" font-weight="700" text-anchor="middle" fill="#2E1740">LoRA Modules</text><text x="680" y="280" font-family="Arial" font-size="23" text-anchor="middle" fill="#2E1740">small trainable</text><text x="680" y="315" font-family="Arial" font-size="23" text-anchor="middle" fill="#2E1740">low-rank updates</text><path d="M590 390 L770 390 M590 455 L770 455 M590 520 L770 520" stroke="#7B3EA8" stroke-width="9" stroke-linecap="round"/><circle cx="590" cy="390" r="18" fill="#FFFFFF" stroke="#7B3EA8" stroke-width="4"/><circle cx="770" cy="390" r="18" fill="#FFFFFF" stroke="#7B3EA8" stroke-width="4"/><circle cx="590" cy="455" r="18" fill="#FFFFFF" stroke="#7B3EA8" stroke-width="4"/><circle cx="770" cy="455" r="18" fill="#FFFFFF" stroke="#7B3EA8" stroke-width="4"/><circle cx="590" cy="520" r="18" fill="#FFFFFF" stroke="#7B3EA8" stroke-width="4"/><circle cx="770" cy="520" r="18" fill="#FFFFFF" stroke="#7B3EA8" stroke-width="4"/><rect x="1030" y="170" width="280" height="420" rx="28" fill="#DDF6E9" stroke="#2F6B55" stroke-width="5"/><text x="1170" y="225" font-family="Arial" font-size="30" font-weight="700" text-anchor="middle" fill="#173B2F">Adapter Bundle</text><text x="1170" y="280" font-family="Arial" font-size="23" text-anchor="middle" fill="#173B2F">crop-specific</text><text x="1170" y="315" font-family="Arial" font-size="23" text-anchor="middle" fill="#173B2F">disease model</text><g font-family="Arial" font-size="20" text-anchor="middle" fill="#173B2F"><rect x="1080" y="365" width="180" height="46" rx="12" fill="#FFFFFF" stroke="#2F6B55" stroke-width="3"/><text x="1170" y="396">weights</text><rect x="1080" y="435" width="180" height="46" rx="12" fill="#FFFFFF" stroke="#2F6B55" stroke-width="3"/><text x="1170" y="466">metadata</text><rect x="1080" y="505" width="180" height="46" rx="12" fill="#FFFFFF" stroke="#2F6B55" stroke-width="3"/><text x="1170" y="536">OOD state</text></g><g stroke="#365F91" stroke-width="6" marker-end="url(#arrow)"><line x1="380" y1="380" x2="510" y2="380"/><line x1="850" y1="380" x2="1020" y2="380"/></g><text x="700" y="675" font-family="Arial" font-size="28" font-weight="700" text-anchor="middle" fill="#1B3142">Train small adapter parameters; reuse strong pretrained visual knowledge</text></svg>