<svg xmlns="http://www.w3.org/2000/svg" width="1400" height="760" viewBox="0 0 1400 760"><rect width="1400" height="760" rx="36" fill="#F6F8FA"/><text x="700" y="70" font-family="Arial" font-size="42" font-weight="700" text-anchor="middle" fill="#173B2F">End-to-End AADS v6 Process</text><defs><marker id="arrow" markerWidth="12" markerHeight="12" refX="10" refY="6" orient="auto"><path d="M2,2 L10,6 L2,10 Z" fill="#2F6B55"/></marker></defs><g font-family="Arial" font-size="25" font-weight="700" text-anchor="middle"><rect x="70" y="180" width="190" height="115" rx="22" fill="#DCEFE6" stroke="#2F6B55" stroke-width="4"/><text x="165" y="230" fill="#173B2F">Raw Image</text><text x="165" y="262" fill="#173B2F">Data</text><rect x="300" y="180" width="190" height="115" rx="22" fill="#EAF1FF" stroke="#3B5FA8" stroke-width="4"/><text x="395" y="230" fill="#173B2F">Audit &amp;</text><text x="395" y="262" fill="#173B2F">Grouping</text><rect x="530" y="180" width="190" height="115" rx="22" fill="#FFF4D8" stroke="#B07800" stroke-width="4"/><text x="625" y="230" fill="#173B2F">Runtime</text><text x="625" y="262" fill="#173B2F">Dataset</text><rect x="760" y="180" width="190" height="115" rx="22" fill="#F5E8FF" stroke="#7B3EA8" stroke-width="4"/><text x="855" y="230" fill="#173B2F">SD-LoRA</text><text x="855" y="262" fill="#173B2F">Adapter</text><rect x="990" y="180" width="190" height="115" rx="22" fill="#FFE6E6" stroke="#B84A4A" stroke-width="4"/><text x="1085" y="230" fill="#173B2F">OOD/OE</text><text x="1085" y="262" fill="#173B2F">Readiness</text><rect x="1210" y="180" width="140" height="115" rx="22" fill="#E9F7FF" stroke="#327A9E" stroke-width="4"/><text x="1280" y="230" fill="#173B2F">Router</text><text x="1280" y="262" fill="#173B2F">Output</text></g><g stroke="#2F6B55" stroke-width="5" marker-end="url(#arrow)"><line x1="260" y1="238" x2="295" y2="238"/><line x1="490" y1="238" x2="525" y2="238"/><line x1="720" y1="238" x2="755" y2="238"/><line x1="950" y1="238" x2="985" y2="238"/><line x1="1180" y1="238" x2="1205" y2="238"/></g><g font-family="Arial" font-size="22" fill="#3F4F49"><text x="165" y="385" text-anchor="middle">class-root folders</text><text x="395" y="385" text-anchor="middle">duplicates, risk, lineage</text><text x="625" y="385" text-anchor="middle">train / val / test / OOD / OE</text><text x="855" y="385" text-anchor="middle">lightweight adaptation</text><text x="1085" y="385" text-anchor="middle">uncertainty evidence</text><text x="1280" y="385" text-anchor="middle">safe handoff</text></g><path d="M180 500 C360 440, 540 620, 720 540 S1080 500, 1260 610" fill="none" stroke="#9ABBAE" stroke-width="6" stroke-dasharray="14 16"/><text x="700" y="690" font-family="Arial" font-size="28" font-weight="700" text-anchor="middle" fill="#173B2F">Goal: defensible training, cautious inference, traceable decisions</text></svg>